PathFileType	4	(X/Y/Z)	Patient4_TMGait_0pt2_01_right_08.trc.trc
DataRate	CameraRate	NumFrames	NumMarkers	Units	OrigDataRate	OrigDataStartFrame	OrigNumFrames
42.682926829268	42.682926829268	4	33	mm	42.682926829268	124	       141
Frame#	Time	Sacral			L.Shoulder			Chest			R.Shoulder			Neck			R.ASIS			L.ASIS			R.Thigh.Superior			R.Thigh.Lateral			R.Thigh.Inferior			R.Patella			L.Thigh.Superior			L.Thigh.Lateral			L.Thigh.Inferior			L.Patella			L.Shank.Superior			L.Shank.Lateral			L.Shank.Inferior			R.Shank.Superior			R.Shank.Lateral			R.Shank.Inferior			R.Heel			R.Midfoot.Superior			R.Midfoot.Lateral			R.Toe			L.Heel			L.Midfoot.Lateral			L.Midfoot.Superior			L.Toe			L.Elbow			L.Wrist			R.Elbow			R.Wrist			
		X1	Y1	Z1	X2	Y2	Z2	X3	Y3	Z3	X4	Y4	Z4	X5	Y5	Z5	X6	Y6	Z6	X7	Y7	Z7	X8	Y8	Z8	X9	Y9	Z9	X10	Y10	Z10	X11	Y11	Z11	X12	Y12	Z12	X13	Y13	Z13	X14	Y14	Z14	X15	Y15	Z15	X16	Y16	Z16	X17	Y17	Z17	X18	Y18	Z18	X19	Y19	Z19	X20	Y20	Z20	X21	Y21	Z21	X22	Y22	Z22	X23	Y23	Z23	X24	Y24	Z24	X25	Y25	Z25	X26	Y26	Z26	X27	Y27	Z27	X28	Y28	Z28	X29	Y29	Z29	X30	Y30	Z30	X31	Y31	Z31	X32	Y32	Z32	X33	Y33	Z33	

124	19.181714285714	806.610669750528	1004.147364191545	422.462524453513	1012.598279533185	1438.346719292071	286.446723806029	1077.800348309700	1369.696338566505	464.413445417670	959.599294102766	1438.909535344876	618.708906808672	960.826907684141	1496.869790524215	440.271938785698	1013.687057805953	941.464839373629	580.097153527310	1046.494028757743	965.736735983802	306.592048726753	1079.042102892958	756.403975519817	558.611481502007	1015.642762370615	639.730705869039	624.636059179092	1104.935680030618	595.040022603342	551.087186401264	1123.094143060909	510.958782854226	567.141705295272	1056.861249534997	737.601168654853	340.721202212798	959.066530743955	631.567471091902	264.401758748295	1015.307137329145	546.698078527871	340.507967252100	1002.257244907449	481.543906347430	349.929981623714	974.966248269049	412.094384283666	339.455820209139	885.082825530899	300.610220469049	284.340415507381	921.494750104668	189.734826487887	363.873416878705	1102.186217894361	420.045021866012	579.827440096392	1038.349273035968	314.179516623006	649.348340864152	1096.622791617521	219.001609385570	598.381064612585	983.348748406734	37.991414391470	583.585493612314	1150.460213616389	106.584577348798	610.277660446989	1073.286410851373	34.219086031283	651.630873824072	1276.728382198806	69.555992568115	628.953148482308	784.084966983296	37.856944311325	401.832745312291	860.265965928872	35.478690543497	322.900809616703	943.798971504909	96.365042369281	352.714695585260	1072.428858971109	42.743375198338	327.278472985545	1173.167285690644	1163.692622864294	126.147116301819	1429.673460161321	1191.024919266707	152.786337157259	807.374906993151	1121.933366581855	691.108725835038	789.692971286132	859.991705017034	682.605035226376	
125	19.205142857143	808.222192460707	1003.153876770595	426.837173545821	1012.412411513277	1437.625379216615	291.452301141989	1077.647977876216	1369.645036146685	469.723941221534	958.769597430063	1438.613611665424	623.653419008465	960.164343624584	1496.295286056333	445.052030737488	1015.070750801976	940.641115888837	585.044881842565	1048.613926900009	965.504809470972	311.760728838743	1080.017230421960	754.433194902772	563.035116617931	1014.527706926675	637.674225546640	627.374777348553	1104.099824907283	593.290393095281	554.122441595363	1120.280103001418	509.546919249693	568.814898689675	1056.579718030696	736.508981808938	344.574246695294	957.325176755070	631.922072845344	267.400438866506	1012.202197989561	546.080022781228	343.093893001372	998.472589505482	481.213196621947	352.128028281939	970.967024700732	412.104345097553	341.299332880318	880.673311946392	301.193362311679	285.617496660436	917.078297985570	189.773114596304	364.492370711267	1100.775497800650	418.368993258184	581.224626530860	1038.232809251272	311.739874856848	650.440898762248	1096.721337416689	217.415094988361	598.445572907407	984.055461911517	37.774887644066	583.547320605872	1151.267699996179	105.221522875815	609.353360479303	1073.939799730981	33.988505025948	651.389957778620	1277.061615515885	67.476251331995	627.616824161400	779.396853608579	37.789775715670	401.791523084108	855.582159609357	35.435615817281	322.944891666442	939.088606214799	96.385913053347	352.771598800303	1067.724708348006	42.817355475172	327.277802084245	1174.109833763416	1163.159992433558	131.731603935885	1429.870863963357	1195.798713815932	157.861280621605	810.468077549853	1119.332097658451	695.668813859817	797.208351922765	856.968347573194	687.161437698820	
126	19.228571428571	810.074820539289	1002.257396514459	431.764671666116	1012.279825905868	1437.062494929194	296.732591208640	1077.819623986412	1369.652559192375	475.176944110048	958.471594788790	1438.297201948124	628.916729396868	959.740441367812	1495.795307909663	450.196317547799	1017.080767078803	940.033034342576	590.087441040116	1050.728122699456	965.331669208724	316.979519459236	1081.722369055731	752.736648953750	567.079649441718	1014.523935903422	635.944957800943	629.976088238124	1104.046455124925	591.754822734835	556.713156951505	1118.342672265109	508.011833709128	570.186959178493	1056.581571923445	735.445299148622	348.415934184558	955.828627436273	632.215648130624	270.730041948605	1009.638448782628	545.465956361507	345.888571711671	995.310041111721	480.802800776856	354.587481221369	967.457496202320	412.042818037794	343.401171854031	876.550718910653	301.870428690625	287.148507717648	912.846704578711	189.788497044730	365.199308194458	1099.514881566533	416.680174843060	582.350972547557	1037.538685491240	309.895353804607	651.308338690703	1095.328225020359	216.021478638080	598.217622020707	981.845158076030	38.504619922255	583.189092545648	1149.593411764840	103.999446468487	608.370702940352	1071.529837119212	34.399122912525	650.995303059217	1274.585027684243	64.784500482305	626.433433525557	774.731397590306	37.759932216306	401.773544200080	850.926991229434	35.423091192232	323.029009485767	934.429091509152	96.410799042540	352.856224993615	1063.047188246418	42.839284938690	327.272443546757	1174.673732058114	1162.387115376612	137.579409182322	1429.779039639076	1199.479436384522	162.969487665135	814.019398607470	1116.827394783144	700.984199240424	804.914173604485	854.131443585752	692.766427852186	
127	19.252000000000	812.093927627937	1001.535764610437	437.209501172901	1012.255219175359	1436.691348198668	302.199589115391	1078.328617053767	1369.739298679818	480.688730056279	958.734161409202	1438.024201058421	634.409738251630	959.597572734252	1495.420485975778	455.613892532142	1019.595523764000	939.714144270548	595.221356629150	1052.749795990328	965.218715939780	322.224313307413	1083.913687359920	751.357330714417	570.843061853918	1015.385735817615	634.612034355644	632.594231465099	1104.501592568548	590.465116484483	559.002279099887	1117.102961444619	506.491469717938	571.408484449242	1056.791998885381	734.444414228832	352.291306517216	954.550699450607	632.465327512761	274.392014088120	1007.599485797845	544.871370998640	348.905041895952	992.746204761198	480.321042272493	357.315363782680	964.434405124908	411.919295946270	345.761107633828	872.713579525710	302.652036839837	288.945856724999	908.787983844245	189.787850153921	365.999400966689	1098.383683038786	415.087613363633	583.345464060723	1036.454573153661	308.535588166170	652.122063176488	1092.885849186035	214.790702031953	597.857184192290	977.580128345087	39.683526037808	582.678023083295	1146.157125446954	102.896497375711	607.444077728239	1067.002473940503	35.119993747415	650.563546373962	1270.225677224182	61.834003581345	625.456848460805	770.087218016998	37.797538357667	401.791091877812	846.296622401442	35.464158611129	323.160161533943	929.826678953568	96.443191970181	352.976239073158	1058.390992624949	42.795541796045	327.263659115385	1174.885591426678	1161.416843691738	143.606362715402	1429.465448774247	1202.085264652452	168.093126865553	817.870326205235	1114.610455577491	706.971431924145	812.484633236355	851.681927886141	699.346405125662	
